<svg width="12" height="24" viewBox="0 0 12 24" fill="none" xmlns="http://www.w3.org/2000/svg">
  <path d="M10 2C10 1.5 9.5 1 9 1C8.5 1 8 1.5 8 2V4C8 4.5 7.5 5 7 5C6.5 5 6 4.5 6 4V2C6 1.5 5.5 1 5 1C4.5 1 4 1.5 4 2V6C4 6.5 3.5 7 3 7C2.5 7 2 6.5 2 6V4C2 3.5 1.5 3 1 3C0.5 3 0 3.5 0 4V20C0 21.5 1.5 23 3 23H9C10.5 23 12 21.5 12 20V8C12 7.5 11.5 7 11 7C10.5 7 10 7.5 10 8V2Z" fill="#90caf9"/>
  <path d="M10 2C10 1.5 9.5 1 9 1C8.5 1 8 1.5 8 2V4C8 4.5 7.5 5 7 5C6.5 5 6 4.5 6 4V2C6 1.5 5.5 1 5 1C4.5 1 4 1.5 4 2V6C4 6.5 3.5 7 3 7C2.5 7 2 6.5 2 6V4C2 3.5 1.5 3 1 3C0.5 3 0 3.5 0 4V20C0 21.5 1.5 23 3 23H9C10.5 23 12 21.5 12 20V8C12 7.5 11.5 7 11 7C10.5 7 10 7.5 10 8V2Z" fill="url(#handGradient)" opacity="0.9"/>
  <defs>
    <linearGradient id="handGradient" x1="0" y1="0" x2="12" y2="24">
      <stop offset="0%" stop-color="#90caf9" stop-opacity="1"/>
      <stop offset="100%" stop-color="#1e88e5" stop-opacity="0.8"/>
    </linearGradient>
  </defs>
</svg>

