<svg width="12" height="24" viewBox="0 0 12 24" fill="none" xmlns="http://www.w3.org/2000/svg">
  <path d="M2 2C2 1.5 2.5 1 3 1C3.5 1 4 1.5 4 2V4C4 4.5 4.5 5 5 5C5.5 5 6 4.5 6 4V2C6 1.5 6.5 1 7 1C7.5 1 8 1.5 8 2V6C8 6.5 8.5 7 9 7C9.5 7 10 6.5 10 6V4C10 3.5 10.5 3 11 3C11.5 3 12 3.5 12 4V20C12 21.5 10.5 23 9 23H3C1.5 23 0 21.5 0 20V8C0 7.5 0.5 7 1 7C1.5 7 2 7.5 2 8V2Z" fill="#90caf9"/>
  <path d="M2 2C2 1.5 2.5 1 3 1C3.5 1 4 1.5 4 2V4C4 4.5 4.5 5 5 5C5.5 5 6 4.5 6 4V2C6 1.5 6.5 1 7 1C7.5 1 8 1.5 8 2V6C8 6.5 8.5 7 9 7C9.5 7 10 6.5 10 6V4C10 3.5 10.5 3 11 3C11.5 3 12 3.5 12 4V20C12 21.5 10.5 23 9 23H3C1.5 23 0 21.5 0 20V8C0 7.5 0.5 7 1 7C1.5 7 2 7.5 2 8V2Z" fill="url(#handGradient)" opacity="0.9"/>
  <defs>
    <linearGradient id="handGradient" x1="0" y1="0" x2="12" y2="24">
      <stop offset="0%" stop-color="#90caf9" stop-opacity="1"/>
      <stop offset="100%" stop-color="#1e88e5" stop-opacity="0.8"/>
    </linearGradient>
  </defs>
</svg>

